<?xml version="1.0" encoding="utf-8"?>
<!-- Generator: Adobe Illustrator 24.0.1, SVG Export Plug-In . SVG Version: 6.00 Build 0)  -->
<svg version="1.1" id="Layer_1" xmlns="http://www.w3.org/2000/svg" xmlns:xlink="http://www.w3.org/1999/xlink" x="0px" y="0px"
	 viewBox="0 0 151 265" enable-background="new 0 0 151 265" xml:space="preserve">
<g>
	<polygon points="104.734,21 134.467,10.5 104.734,0 45.266,0 15.533,10.5 45.266,21 	"/>
	<polygon points="20.5,101.234 20.5,41.766 10,12.033 -0.5,41.766 -0.5,101.234 10,130.967 	"/>
	<polygon points="140,12.033 129.5,41.766 129.5,101.234 140,130.967 150.5,101.234 150.5,41.766 	"/>
	<polygon points="15.533,132.5 45.266,143 104.734,143 134.467,132.5 104.734,122 45.266,122 	"/>
	<polygon points="45.266,244 15.533,254.5 45.266,265 104.734,265 134.467,254.5 104.734,244 	"/>
	<polygon points="20.5,163.766 10,134.033 -0.5,163.766 -0.5,223.234 10,252.967 20.5,223.234 	"/>
	<polygon points="129.5,163.766 129.5,223.234 140,252.967 150.5,223.234 150.5,163.766 140,134.033 	"/>
</g>
</svg>
