<?xml version="1.0" encoding="utf-8"?>
<!-- Generator: Adobe Illustrator 24.0.1, SVG Export Plug-In . SVG Version: 6.00 Build 0)  -->
<svg version="1.1" id="Layer_1" xmlns="http://www.w3.org/2000/svg" xmlns:xlink="http://www.w3.org/1999/xlink" x="0px" y="0px"
	 viewBox="0 0 151 265" style="enable-background:new 0 0 151 265;" xml:space="preserve">
<style type="text/css">
	.st0{fill:#8B6DD3;}
</style>
<g>
	<polygon class="st0" points="104.7,21 134.5,10.5 104.7,0 45.3,0 15.5,10.5 45.3,21 	"/>
	<polygon class="st0" points="20.5,101.2 20.5,41.8 10,12 -0.5,41.8 -0.5,101.2 10,131 	"/>
	<polygon class="st0" points="140,12 129.5,41.8 129.5,101.2 140,131 150.5,101.2 150.5,41.8 	"/>
	<polygon class="st0" points="15.5,132.5 45.3,143 104.7,143 134.5,132.5 104.7,122 45.3,122 	"/>
	<polygon class="st0" points="45.3,244 15.5,254.5 45.3,265 104.7,265 134.5,254.5 104.7,244 	"/>
	<polygon class="st0" points="20.5,163.8 10,134 -0.5,163.8 -0.5,223.2 10,253 20.5,223.2 	"/>
	<polygon class="st0" points="129.5,163.8 129.5,223.2 140,253 150.5,223.2 150.5,163.8 140,134 	"/>
</g>
</svg>
